<svg width="45" height="45" viewBox="0 0 45 45" fill="none" xmlns="http://www.w3.org/2000/svg">
  <circle cx="22.5" cy="22.5" r="21.5" fill="#5AB3E4" stroke="#73BEE8" stroke-width="2"/>
  <path d="M20.9673 17.5876C20.9673 19.7038 20.3622 21.4529 19.152 22.8351C17.9418 24.2172 16.358 24.9083 14.4005 24.9083C12.4496 24.9083 10.8724 24.2172 9.66879 22.8351C8.47181 21.4529 7.87332 19.7038 7.87332 17.5876V17.3693C7.87332 15.2663 8.47181 13.5205 9.66879 12.1317C10.8658 10.743 12.4397 10.0486 14.3906 10.0486C16.348 10.0486 17.9319 10.743 19.1421 12.1317C20.3589 13.5205 20.9673 15.2663 20.9673 17.3693V17.5876ZM18.0807 17.3495C18.0807 15.8549 17.7699 14.6414 17.1482 13.709C16.5266 12.7765 15.6074 12.3103 14.3906 12.3103C13.1737 12.3103 12.2644 12.7732 11.6626 13.699C11.0675 14.6249 10.7699 15.8417 10.7699 17.3495V17.5876C10.7699 19.1086 11.0708 20.3353 11.6726 21.2678C12.281 22.1936 13.1903 22.6565 14.4005 22.6565C15.6239 22.6565 16.5431 22.1936 17.1582 21.2678C17.7732 20.3353 18.0807 19.1086 18.0807 17.5876V17.3495Z" fill="#FEED7D"/>
  <path d="M36.8884 10.2569V12.0028L35.341 12.3004V24.7H32.4543L26.6215 14.9787L26.562 14.9886V22.6664L28.1095 22.964V24.7H22.1279V22.964L23.6655 22.6664V12.3004L22.1279 12.0028V10.2569H26.562L32.3948 19.9782L32.4543 19.9683V12.3004L30.9068 12.0028V10.2569H36.8884Z" fill="#FEED7D"/>
  <path d="M13.3541 30.3095H12.3589L12.2213 29.4197C12.0898 29.2882 11.9231 29.1843 11.7213 29.1078C11.5226 29.0314 11.2872 28.9931 11.015 28.9931C10.4341 28.9931 9.98611 29.2041 9.67117 29.6261C9.35928 30.0481 9.20334 30.5984 9.20334 31.2772V31.5112C9.20334 32.19 9.35928 32.7419 9.67117 33.1669C9.98305 33.5919 10.4234 33.8044 10.9921 33.8044C11.255 33.8044 11.4951 33.7662 11.7122 33.6898C11.9323 33.6133 12.102 33.5093 12.2213 33.3779L12.3589 32.4881H13.3541V33.809C13.0851 34.1209 12.7411 34.3701 12.3222 34.5566C11.9063 34.7401 11.44 34.8318 10.9233 34.8318C10.0274 34.8318 9.29354 34.5214 8.72175 33.9007C8.14997 33.28 7.86407 32.4835 7.86407 31.5112V31.2864C7.86407 30.3171 8.14844 29.5206 8.71717 28.8968C9.2859 28.2731 10.0213 27.9612 10.9233 27.9612C11.44 27.9612 11.9063 28.056 12.3222 28.2455C12.738 28.4321 13.082 28.6797 13.3541 28.9886V30.3095Z" fill="white"/>
  <path d="M13.9733 34.7355V33.9328L14.6842 33.7952V29.0023L13.9733 28.8647V28.0575H16.739V28.8647L16.0235 29.0023V33.7081H17.9086L17.9728 32.8688H18.9956V34.7355H13.9733Z" fill="white"/>
  <path d="M19.4084 33.9328L19.8854 33.864L21.9172 28.0575H23.2886L25.3066 33.864L25.7836 33.9328V34.7355H23.5087V33.9328L23.972 33.8503L23.6784 32.933H21.5136L21.22 33.8503L21.6833 33.9328V34.7355H19.4084V33.9328ZM21.83 31.9469H23.3619L22.6098 29.594H22.5822L21.83 31.9469Z" fill="white"/>
  <path d="M31.3012 30.1902H30.2968L30.1225 29.2729C30.0063 29.1995 29.8366 29.1353 29.6134 29.0803C29.3902 29.0253 29.1532 28.9977 28.9025 28.9977C28.5355 28.9977 28.2512 29.0757 28.0494 29.2316C27.8506 29.3845 27.7512 29.5833 27.7512 29.8279C27.7512 30.0542 27.8552 30.2407 28.0631 30.3875C28.2741 30.5312 28.6364 30.684 29.1501 30.8461C29.887 31.051 30.4451 31.3216 30.8242 31.6579C31.2064 31.9943 31.3975 32.4361 31.3975 32.9834C31.3975 33.5552 31.1713 34.0062 30.7187 34.3365C30.2662 34.6667 29.6699 34.8318 28.93 34.8318C28.401 34.8318 27.9225 34.7477 27.4944 34.5795C27.0694 34.4114 26.7147 34.179 26.4303 33.8824V32.4881H27.4669L27.6091 33.4375C27.7436 33.5476 27.9255 33.6393 28.1549 33.7127C28.3872 33.783 28.6456 33.8182 28.93 33.8182C29.2969 33.8182 29.5752 33.7433 29.7647 33.5934C29.9574 33.4436 30.0537 33.2433 30.0537 32.9926C30.0537 32.7358 29.962 32.5294 29.7785 32.3734C29.5981 32.2175 29.2801 32.0707 28.8245 31.9331C28.0326 31.7038 27.4333 31.4317 27.0266 31.1167C26.6199 30.8018 26.4166 30.3706 26.4166 29.8233C26.4166 29.2821 26.6459 28.8403 27.1045 28.4978C27.5632 28.1523 28.1396 27.9749 28.8337 27.9658C29.3474 27.9658 29.8152 28.0437 30.2371 28.1997C30.6591 28.3556 31.0138 28.5635 31.3012 28.8234V30.1902Z" fill="white"/>
  <path d="M36.9977 30.1902H35.9932L35.8189 29.2729C35.7028 29.1995 35.5331 29.1353 35.3098 29.0803C35.0866 29.0253 34.8497 28.9977 34.5989 28.9977C34.232 28.9977 33.9476 29.0757 33.7458 29.2316C33.5471 29.3845 33.4477 29.5833 33.4477 29.8279C33.4477 30.0542 33.5517 30.2407 33.7596 30.3875C33.9706 30.5312 34.3329 30.684 34.8466 30.8461C35.5835 31.051 36.1415 31.3216 36.5207 31.6579C36.9029 31.9943 37.094 32.4361 37.094 32.9834C37.094 33.5552 36.8677 34.0062 36.4152 34.3365C35.9627 34.6667 35.3664 34.8318 34.6265 34.8318C34.0975 34.8318 33.6189 34.7477 33.1909 34.5795C32.7659 34.4114 32.4112 34.179 32.1268 33.8824V32.4881H33.1633L33.3055 33.4375C33.4401 33.5476 33.622 33.6393 33.8513 33.7127C34.0837 33.783 34.3421 33.8182 34.6265 33.8182C34.9934 33.8182 35.2716 33.7433 35.4612 33.5934C35.6538 33.4436 35.7502 33.2433 35.7502 32.9926C35.7502 32.7358 35.6584 32.5294 35.475 32.3734C35.2946 32.2175 34.9766 32.0707 34.521 31.9331C33.729 31.7038 33.1297 31.4317 32.723 31.1167C32.3164 30.8018 32.113 30.3706 32.113 29.8233C32.113 29.2821 32.3424 28.8403 32.801 28.4978C33.2597 28.1523 33.836 27.9749 34.5301 27.9658C35.0438 27.9658 35.5117 28.0437 35.9336 28.1997C36.3556 28.3556 36.7103 28.5635 36.9977 28.8234V30.1902Z" fill="white"/>
</svg>
